<?xml version="1.0" encoding="UTF-8" standalone="no"?>
<!-- Created with Inkscape (http://www.inkscape.org/) -->

<svg
   xmlns:dc="http://purl.org/dc/elements/1.1/"
   xmlns:cc="http://creativecommons.org/ns#"
   xmlns:rdf="http://www.w3.org/1999/02/22-rdf-syntax-ns#"
   xmlns:svg="http://www.w3.org/2000/svg"
   xmlns="http://www.w3.org/2000/svg"
   xmlns:sodipodi="http://sodipodi.sourceforge.net/DTD/sodipodi-0.dtd"
   xmlns:inkscape="http://www.inkscape.org/namespaces/inkscape"
   width="400"
   height="400"
   viewBox="0 0 400 400.00001"
   id="svg2"
   version="1.1"
   inkscape:version="0.91 r13725"
   sodipodi:docname="mapa-del-tesoro.svg">
  <sodipodi:namedview
     id="base"
     pagecolor="#ffffff"
     bordercolor="#666666"
     borderopacity="1.0"
     inkscape:pageopacity="0.0"
     inkscape:pageshadow="2"
     inkscape:zoom="0.98994949"
     inkscape:cx="-34.940375"
     inkscape:cy="215.47484"
     inkscape:document-units="px"
     inkscape:current-layer="layer1"
     showgrid="false"
     units="px"
     showguides="true"
     inkscape:guide-bbox="true"
     inkscape:window-width="1920"
     inkscape:window-height="1025"
     inkscape:window-x="1920"
     inkscape:window-y="0"
     inkscape:window-maximized="1">
    <sodipodi:guide
       id="guide4136"
       orientation="1,0"
       position="28.284271,187.88838" />
    <sodipodi:guide
       id="guide4138"
       orientation="0,1"
       position="385.87827,372.7463" />
    <sodipodi:guide
       id="guide4166"
       orientation="0,1"
       position="174.75639,372.7463" />
  </sodipodi:namedview>
  <defs
     id="defs4">
    <marker
       inkscape:stockid="TriangleOutL"
       orient="auto"
       refY="0.0"
       refX="0.0"
       id="marker4956"
       style="overflow:visible"
       inkscape:isstock="true">
      <path
         id="path4958"
         d="M 5.77,0.0 L -2.88,5.0 L -2.88,-5.0 L 5.77,0.0 z "
         style="fill-rule:evenodd;stroke:#000000;stroke-width:1pt;stroke-opacity:1;fill:#000000;fill-opacity:1"
         transform="scale(0.8)" />
    </marker>
    <marker
       inkscape:stockid="TriangleOutL"
       orient="auto"
       refY="0.0"
       refX="0.0"
       id="marker4620"
       style="overflow:visible"
       inkscape:isstock="true">
      <path
         id="path4622"
         d="M 5.77,0.0 L -2.88,5.0 L -2.88,-5.0 L 5.77,0.0 z "
         style="fill-rule:evenodd;stroke:#000000;stroke-width:1pt;stroke-opacity:1;fill:#000000;fill-opacity:1"
         transform="scale(0.8)" />
    </marker>
    <marker
       inkscape:collect="always"
       inkscape:isstock="true"
       style="overflow:visible"
       id="marker4548"
       refX="0.0"
       refY="0.0"
       orient="auto"
       inkscape:stockid="TriangleOutL">
      <path
         transform="scale(0.8)"
         style="fill-rule:evenodd;stroke:#000000;stroke-width:1pt;stroke-opacity:1;fill:#000000;fill-opacity:1"
         d="M 5.77,0.0 L -2.88,5.0 L -2.88,-5.0 L 5.77,0.0 z "
         id="path4550" />
    </marker>
    <marker
       inkscape:isstock="true"
       style="overflow:visible"
       id="marker4508"
       refX="0.0"
       refY="0.0"
       orient="auto"
       inkscape:stockid="TriangleOutL">
      <path
         transform="scale(0.8)"
         style="fill-rule:evenodd;stroke:#000000;stroke-width:1pt;stroke-opacity:1;fill:#000000;fill-opacity:1"
         d="M 5.77,0.0 L -2.88,5.0 L -2.88,-5.0 L 5.77,0.0 z "
         id="path4510" />
    </marker>
    <marker
       inkscape:isstock="true"
       style="overflow:visible;"
       id="Arrow2Lend"
       refX="0.0"
       refY="0.0"
       orient="auto"
       inkscape:stockid="Arrow2Lend">
      <path
         transform="scale(1.1) rotate(180) translate(1,0)"
         d="M 8.7185878,4.0337352 L -2.2072895,0.016013256 L 8.7185884,-4.0017078 C 6.9730900,-1.6296469 6.9831476,1.6157441 8.7185878,4.0337352 z "
         style="fill-rule:evenodd;stroke-width:0.625;stroke-linejoin:round;stroke:#000000;stroke-opacity:1;fill:#000000;fill-opacity:1"
         id="path4195" />
    </marker>
    <marker
       inkscape:isstock="true"
       style="overflow:visible"
       id="TriangleOutL"
       refX="0.0"
       refY="0.0"
       orient="auto"
       inkscape:stockid="TriangleOutL">
      <path
         transform="scale(0.8)"
         style="fill-rule:evenodd;stroke:#000000;stroke-width:1pt;stroke-opacity:1;fill:#000000;fill-opacity:1"
         d="M 5.77,0.0 L -2.88,5.0 L -2.88,-5.0 L 5.77,0.0 z "
         id="path4316" />
    </marker>
    <marker
       inkscape:isstock="true"
       style="overflow:visible;"
       id="Arrow1Lend"
       refX="0.0"
       refY="0.0"
       orient="auto"
       inkscape:stockid="Arrow1Lend">
      <path
         transform="scale(0.8) rotate(180) translate(12.5,0)"
         style="fill-rule:evenodd;stroke:#000000;stroke-width:1pt;stroke-opacity:1;fill:#000000;fill-opacity:1"
         d="M 0.0,0.0 L 5.0,-5.0 L -12.5,0.0 L 5.0,5.0 L 0.0,0.0 z "
         id="path4177" />
    </marker>
  </defs>
  <metadata
     id="metadata7">
    <rdf:RDF>
      <cc:Work
         rdf:about="">
        <dc:format>image/svg+xml</dc:format>
        <dc:type
           rdf:resource="http://purl.org/dc/dcmitype/StillImage" />
        <dc:title></dc:title>
      </cc:Work>
    </rdf:RDF>
  </metadata>
  <g
     transform="translate(0,-652.36216)"
     id="layer1"
     inkscape:groupmode="layer"
     inkscape:label="Capa 1">
    <rect
       style="color:#000000;clip-rule:nonzero;display:inline;overflow:visible;visibility:visible;opacity:1;isolation:auto;mix-blend-mode:normal;color-interpolation:sRGB;color-interpolation-filters:linearRGB;solid-color:#000000;solid-opacity:1;fill:#aaeeff;fill-opacity:1;fill-rule:evenodd;stroke:none;stroke-width:1px;stroke-linecap:butt;stroke-linejoin:miter;stroke-miterlimit:4;stroke-dasharray:none;stroke-dashoffset:0;stroke-opacity:1;color-rendering:auto;image-rendering:auto;shape-rendering:auto;text-rendering:auto;enable-background:accumulate"
       id="rect6171"
       width="341.18317"
       height="337.18494"
       x="36.42857"
       y="690.2193" />
    <path
       style="fill:#ffccaa;fill-rule:evenodd;stroke:none;stroke-width:1px;stroke-linecap:butt;stroke-linejoin:miter;stroke-opacity:1;color:#000000;clip-rule:nonzero;display:inline;overflow:visible;visibility:visible;opacity:1;isolation:auto;mix-blend-mode:normal;color-interpolation:sRGB;color-interpolation-filters:linearRGB;solid-color:#000000;solid-opacity:1;fill-opacity:1;stroke-miterlimit:4;stroke-dasharray:none;stroke-dashoffset:0;filter-blend-mode:normal;filter-gaussianBlur-deviation:0;color-rendering:auto;image-rendering:auto;shape-rendering:auto;text-rendering:auto;enable-background:accumulate"
       d="m 277.14286,813.79073 c -7.14286,0 -14.28572,0 -21.42857,0 -1.83893,0 -3.25763,0.1569 -5,-0.71428 -0.30117,-0.15059 -0.47619,-0.4762 -0.71429,-0.71429 -0.23809,-0.2381 -0.60781,-0.39485 -0.71429,-0.71429 -0.15058,-0.45175 0.15059,-0.97681 0,-1.42857 -0.21295,-0.63887 -1.21561,-0.78969 -1.42857,-1.42857 -0.15058,-0.45175 0,-0.95238 0,-1.42857 0,-1.3858 0.38408,-3.90164 -0.71428,-5 -0.5324,-0.5324 -1.46942,-0.37757 -2.14286,-0.71429 -0.54563,-0.27281 -1.65918,-1.98163 -2.14286,-2.14285 -0.45175,-0.15059 -0.95238,0 -1.42857,0 -0.71428,-0.47619 -1.37502,-1.04466 -2.14286,-1.42857 -0.21295,-0.10648 -0.47619,0 -0.71428,0 -0.47619,0 -0.96163,0.0934 -1.42857,0 -0.7383,-0.14766 -1.46942,-0.37757 -2.14286,-0.71429 -0.30117,-0.15058 -0.39485,-0.60781 -0.71429,-0.71429 -0.9035,-0.30117 -1.95363,0.30117 -2.85714,0 -0.24014,-0.08 -2.68741,-2.6874 -2.85714,-2.85714 -1.19048,-1.19048 -2.38095,-2.38095 -3.57143,-3.57143 -0.2381,-0.23809 -0.47619,-0.47619 -0.71429,-0.71428 -0.23809,-0.2381 -0.6078,-0.39485 -0.71428,-0.71429 -0.14426,-0.43276 0,-5.67146 0,-5.71428 0,-0.4762 0,-0.95239 0,-1.42858 0,-0.95238 -0.30117,-1.95363 0,-2.85714 0.43902,-1.31708 1.52198,-2.32967 2.14286,-3.57143 0.81092,-1.62184 1.20993,-3.44512 2.14285,-5 0.96233,-1.60387 3.71807,-3.16402 5,-4.28571 1.01363,-0.88692 1.90477,-1.90476 2.85715,-2.85714 0.95238,-0.95239 1.99489,-1.82245 2.85714,-2.85715 0.34083,-0.409 0.25776,-1.15465 0.71428,-1.42857 0.8418,-0.50508 1.88532,-0.57545 2.85715,-0.71428 1.17851,-0.16836 2.38095,0 3.57143,0 2.38095,0 4.7619,0 7.14285,0 0.60618,0 3.89195,0.13125 4.28572,0 1.051,-0.35034 0.71428,-1.36847 0.71428,-2.14286 0,-1.6345 0.15059,-1.84169 -0.71428,-3.57143 -0.15059,-0.30117 -0.60781,-0.39485 -0.71429,-0.71429 -0.15058,-0.45175 0.15059,-0.97681 0,-1.42857 -0.21296,-0.63887 -1.21561,-0.78969 -1.42857,-1.42857 -0.15058,-0.45175 0,-0.95238 0,-1.42857 0,-0.47619 -0.21296,-1.00265 0,-1.42857 0.30117,-0.60234 0.95238,-0.95238 1.42857,-1.42857 0.2381,-0.2381 0.39485,-0.60781 0.71429,-0.71429 0.45175,-0.15058 0.95238,0 1.42857,0 0.47619,-0.47619 0.8033,-1.17846 1.42857,-1.42857 0.6632,-0.26528 1.42857,0 2.14286,0 1.19047,0 2.38095,0 3.57143,0 0.47619,0 1.00265,0.21296 1.42857,0 0.60234,-0.30117 0.82623,-1.1274 1.42857,-1.42857 0.42592,-0.21296 0.95238,0 1.42857,0 0.47619,0 0.95238,0 1.42857,0 1.42857,0 2.85714,0 4.28572,0 1.42857,0 2.85714,0 4.28571,0 0.47619,0 0.95238,0 1.42857,0 0.47619,0 0.98644,-0.17685 1.42857,0 0.79707,0.31882 1.32845,1.1571 2.14286,1.42857 0.50457,0.16819 4.14672,0 5,0 0.47619,0 1.00265,-0.21296 1.42857,0 0.60234,0.30117 0.82623,1.1274 1.42857,1.42857 0.42592,0.21296 0.95238,0 1.42857,0 0.4762,0 0.95239,0 1.42858,0 2.19085,0 6.00401,-0.39759 7.85714,0.71429 0.57746,0.34648 0.95238,0.95238 1.42857,1.42857 1.19048,1.19047 2.38095,2.38095 3.57143,3.57143 0.47619,0.47619 0.78969,1.21561 1.42857,1.42857 0.90351,0.30117 1.92326,-0.18678 2.85714,0 0.66036,0.13207 0.7897,1.21561 1.42857,1.42857 0.45176,0.15058 0.97682,-0.15058 1.42858,0 0.63887,0.21296 0.78969,1.21561 1.42857,1.42857 0.45175,0.15059 0.97681,-0.15058 1.42857,0 1.37955,0.45985 0.24965,1.21359 0.71428,2.14286 0.30117,0.60234 0.95239,0.95238 1.42858,1.42857 2.14285,2.14286 4.28571,4.28571 6.42857,6.42857 1.19047,1.19048 2.38095,2.38095 3.57143,3.57143 0.47619,0.47619 0.82623,1.1274 1.42857,1.42857 0.42592,0.21296 1.00265,-0.21296 1.42857,0 3.25163,3.25163 -0.29587,0.37757 2.85714,1.42857 0.63888,0.21296 0.7897,1.21562 1.42857,1.42857 0.45176,0.15059 0.95238,0 1.42857,0 1.42858,0 2.85715,0 4.28572,0 0.47619,0 0.97682,-0.15058 1.42857,0 0.63888,0.21296 0.82623,1.12741 1.42857,1.42858 0.67344,0.33671 1.61046,0.18188 2.14286,0.71428 0.33672,0.33672 -0.21296,1.00265 0,1.42857 0.30117,0.60234 1.1274,0.82624 1.42857,1.42857 0.21296,0.42592 0,0.95238 0,1.42858 0,0.47619 0,0.95238 0,1.42857 0,2.38095 0,4.7619 0,7.14285 0,3.33334 0,6.66667 0,10 0,0.60618 0.13126,3.89195 0,4.28572 -0.10648,0.31944 -0.47619,0.47619 -0.71429,0.71428 -0.23809,0.2381 -0.47619,0.47619 -0.71428,0.71429 -0.2381,0.23809 -0.39485,0.60781 -0.71429,0.71429 -0.45175,0.15058 -0.95238,0 -1.42857,0 -0.47619,0 -0.95238,0 -1.42857,0 -1.90476,0 -3.80952,0 -5.71429,0 -0.47619,0 -0.95238,0 -1.42857,0 -0.47619,0 -0.97681,-0.15059 -1.42857,0 -0.31944,0.10647 -0.6078,0.39484 -0.71428,0.71428 -0.13126,0.39377 0,3.67954 0,4.28572 0,0.47619 0.21295,1.00265 0,1.42857 -0.30117,0.60234 -1.21562,0.78969 -1.42858,1.42857 -0.30116,0.90351 0.18678,1.92325 0,2.85714 -0.13207,0.66036 -1.21561,0.7897 -1.42857,1.42857 -0.30117,0.90351 0.30117,1.95364 0,2.85715 -0.35033,1.051 -1.36846,0.71428 -2.14285,0.71428 -0.47619,0 -0.95238,0 -1.42858,0 -0.47619,0 -0.95238,0 -1.42857,0 -0.47619,0 -0.97681,0.15059 -1.42857,0 -0.31944,-0.10648 -0.47619,-0.47619 -0.71428,-0.71428 -0.2381,-0.2381 -0.47619,-0.4762 -0.71429,-0.71429 -0.32168,-0.32168 -2.03417,-1.81679 -2.14286,-2.14286 -0.15058,-0.45175 0.15059,-0.97681 0,-1.42857 -0.21296,-0.63888 -1.21561,-0.78969 -1.42857,-1.42857 -0.32509,-0.97528 0.3251,-3.31043 0,-4.28571 -0.21296,-0.63888 -1.1274,-0.82624 -1.42857,-1.42858 -0.33672,-0.67343 -0.18189,-1.61046 -0.71429,-2.14285 -0.33671,-0.33672 -0.95238,0 -1.42857,0 -3.33333,0 -6.66666,0 -10,0 -1.76529,0 -1.09185,0.33671 -2.14285,-0.71429 -0.2381,-0.23809 -0.39485,-0.60781 -0.71429,-0.71428 -0.45175,-0.15059 -0.95238,0 -1.42857,0 -0.47619,0 -0.95238,0 -1.42857,0 -2.38095,0 -4.76191,0 -7.14286,0 -1.90476,0 -3.80952,0 -5.71429,0 -0.47619,0 -0.95238,0 -1.42857,0 -0.47619,0 -0.97681,-0.15059 -1.42857,0 -0.31944,0.10647 -0.47619,0.47619 -0.71428,0.71428 -0.2381,0.2381 -0.47619,0.47619 -0.71429,0.71429 -0.23809,0.23809 -0.60781,0.39484 -0.71429,0.71428 -0.32509,0.97528 0.3251,3.31044 0,4.28572 -0.10647,0.31944 -0.47619,0.95238 -0.71428,0.71428 -0.2381,-0.23809 1.051,-0.71428 0.71428,-0.71428 -0.75292,0 -1.40455,0.56662 -2.14285,0.71428 -0.46695,0.0934 -0.97682,-0.15058 -1.42857,0 -0.7563,0.2521 -1.04502,1.81213 -1.42858,1.42857 -0.23809,-0.23809 0.95239,-0.95238 0.71429,-0.71428 -0.95238,0.95238 -1.90476,1.90476 -2.85714,2.85714 z"
       id="path6155"
       inkscape:connector-curvature="0" />
    <path
       style="fill:#ffccaa;fill-rule:evenodd;stroke:none;stroke-width:1px;stroke-linecap:butt;stroke-linejoin:miter;stroke-opacity:1"
       d="m 36.112953,845.28089 c 5.050763,-1.68359 2.400647,-3.02366 7.323606,-5.05076 0.880646,-0.36262 1.346871,-1.34687 2.020306,-2.02031 l 2.020305,-2.0203 c 0.45493,-0.45493 2.876745,-2.56933 3.030457,-3.03046 0.212959,-0.63888 -0.212959,-1.38143 0,-2.02031 0.150585,-0.45175 0.558399,-0.85957 1.010153,-1.01015 0.556875,-0.18563 5.203653,0 6.060915,0 l 4.04061,0 c 0.673435,0 1.359948,-0.13207 2.020305,0 5.723208,1.14464 0.677188,0.40631 5.050763,3.03046 0.913054,0.54783 2.117404,0.46232 3.030458,1.01015 0.81666,0.49 1.168469,1.59439 2.020305,2.02031 0.602338,0.30116 1.359948,-0.13208 2.020305,0 0.01206,0.002 4.278725,1.78219 5.050763,1.01015 0.47619,-0.47619 -0.30117,-1.41797 0,-2.02031 0.425917,-0.85183 1.425357,-1.27662 2.020305,-2.0203 0.758412,-0.94802 1.16184,-2.172 2.020305,-3.03046 0.238095,-0.2381 0.708983,0.15058 1.010152,0 0.425918,-0.21296 0.673435,-0.67344 1.010153,-1.01015 l 2.020305,-2.02031 1.010153,-1.01015 c 0.336717,-0.33672 0.797193,-0.58423 1.010152,-1.01015 1.152015,-2.30403 0.399718,-3.7354 3.030458,-5.05077 0.602338,-0.30116 1.381428,0.21296 2.020305,0 0.737838,-0.24594 3.302772,-3.79466 4.040608,-4.04061 0.63888,-0.21295 1.34687,0 2.02031,0 l 2.0203,0 8.08122,0 13.13199,0 8.08122,0 c 1.34687,0 2.73395,-0.32666 4.04061,0 4.8852,1.22131 2.98039,1.73022 6.06091,4.04061 0.60234,0.45176 1.41797,0.5584 2.02031,1.01016 0.7619,0.57143 1.16847,1.59438 2.0203,2.0203 0.60234,0.30117 1.38143,-0.21296 2.02031,0 0.0793,0.0264 3.00403,2.95119 3.03045,3.03046 0.21296,0.63888 -0.21295,1.38143 0,2.0203 0.15059,0.45176 0.67344,0.67344 1.01016,1.01016 0.67343,0.67343 1.16847,1.59438 2.0203,2.0203 0.60234,0.30117 1.34687,0 2.02031,0 2.45215,0 4.81801,-0.34168 7.07106,1.01016 0.81666,0.48999 1.34687,1.34687 2.02031,2.0203 l 4.04061,4.04061 c 0.66359,0.66359 3.92184,3.6843 4.04061,4.04061 0.42592,1.27775 -0.42592,2.76286 0,4.04061 0.60234,1.80702 3.18878,2.33694 4.04061,4.04061 0.0831,0.16615 -0.0782,3.64936 0,4.04061 0.20882,1.04412 0.67344,2.02031 1.01015,3.03046 0.33672,1.01015 0.46232,2.1174 1.01016,3.03046 6.7005,6.7005 -0.95239,-1.90477 2.0203,4.04061 0.42592,0.85183 1.59439,1.16847 2.02031,2.0203 0.30117,0.60234 -0.30117,1.41797 0,2.02031 0.42591,0.85183 1.59438,1.16847 2.0203,2.0203 0.30117,0.60234 0,1.34687 0,2.02031 0.33672,1.01015 0.46232,2.1174 1.01015,3.03045 0.49,0.81666 1.29721,1.40051 2.02031,2.02031 1.63699,1.40313 3.21455,2.91063 5.05076,4.04061 2.56493,1.57842 5.38748,2.69374 8.08122,4.04061 l 10.10153,5.05076 c 2.69374,1.34687 5.57534,2.37003 8.08122,4.04061 10.58241,7.05495 -5.06921,2.09092 13.13198,9.09138 1.2571,0.48349 2.73395,-0.32667 4.04061,0 1.46089,0.36522 2.64247,1.46104 4.04061,2.0203 0.31264,0.12505 0.72999,-0.18678 1.01015,0 0.79243,0.52829 1.16847,1.59439 2.02031,2.02031 3.07594,1.53797 1.3959,-2.64471 5.05076,1.01015 0.19487,0.19487 -0.16349,3.22316 0,4.04061 -1.71682,2.73424 1.54412,2.61204 2.02031,4.04061 0.21296,0.63888 0,1.34687 0,2.0203 l 0,2.02031 0,6.06091 0,10.10153 c 0,2.60063 0.22189,4.60698 -1.01016,7.07107 -0.21296,0.42592 -0.67343,0.67343 -1.01015,1.01015 l -1.01015,1.01015 c -1.87913,1.87913 -2.50217,2.76632 -5.05076,4.04061 -0.30117,0.15059 -0.70899,-0.15058 -1.01016,0 -0.85183,0.42592 -1.08642,1.83353 -2.0203,2.02031 -1.32072,0.26414 -2.70728,-0.19048 -4.04061,0 -2.10819,0.30117 -3.97268,1.60266 -6.06092,2.0203 -0.66035,0.13207 -1.41796,-0.30117 -2.0203,0 -0.85184,0.42592 -1.1168,1.71914 -2.02031,2.02031 -1.27775,0.42592 -2.71989,-0.26414 -4.04061,0 -2.08823,0.41764 -3.97268,1.60266 -6.06091,2.0203 -1.32072,0.26415 -2.76286,-0.42591 -4.04061,0 -0.90351,0.30117 -1.16847,1.59439 -2.02031,2.02031 -0.60234,0.30117 -1.41796,-0.30117 -2.0203,0 -0.85184,0.42592 -1.34687,1.34687 -2.02031,2.0203 -0.67343,0.67344 -1.53031,1.20365 -2.0203,2.02031 -0.54784,0.91305 -0.80133,1.98634 -1.01016,3.03046 -0.26414,1.32071 0,2.69374 0,4.04061 l 0,6.06091 0,6.06092 0,2.0203 c 0,0.67344 -0.21295,1.38143 0,2.02031 0.30117,0.90351 1.71914,1.11679 2.02031,2.0203 0.45975,1.37926 -0.45975,4.68166 0,6.06092 0.30117,0.90351 1.71914,1.11679 2.0203,2.0203 0.21296,0.63888 -0.13207,1.35995 0,2.02031 0.40036,9.08577 0.59728,-0.22847 2.02031,4.04057 0.21296,0.6389 -0.21296,1.3815 0,2.0203 0.41966,1.259 2.59155,1.3168 2.0203,3.0305 -1.23799,3.714 -2.2045,1.4511 -5.05076,2.0203 -1.79862,-2.0287 -3.03046,1.6836 -4.04061,2.0203 -1.37925,0.4598 -4.68166,-0.4597 -6.06091,0 -0.46114,0.1537 -2.57553,2.5755 -3.03046,3.0305 -0.85525,0.8552 -3.67857,3.3165 -4.04061,4.0406 -0.30117,0.6023 0.30117,1.418 0,2.0203 -0.42592,0.8518 -1.59439,1.1685 -2.02031,2.0203 -0.60234,1.2047 0.42592,2.7629 0,4.0406 -0.15058,0.4518 -0.67343,0.6734 -1.01015,1.0102 l -1.01015,1.0101 -149.755117,0 z"
       id="path6151"
       inkscape:connector-curvature="0"
       sodipodi:nodetypes="cssssscsssssccsssscscsscscscccssssscccssssssssccscsssscssssssssccsscssccssssccssssssssssccssccscsssccccccsccscccccc" />
    <path
       inkscape:connector-curvature="0"
       id="path4140"
       d="m 35.661983,692.01174 304.628777,0"
       style="fill:none;fill-rule:evenodd;stroke:#000000;stroke-width:0.93654376px;stroke-linecap:butt;stroke-linejoin:miter;stroke-opacity:1" />
    <path
       inkscape:connector-curvature="0"
       id="path4142"
       d="m 35.661983,693.90385 0,286.65379"
       style="fill:none;fill-rule:evenodd;stroke:#000000;stroke-width:0.93654376px;stroke-linecap:butt;stroke-linejoin:miter;stroke-opacity:1" />
    <g
       transform="matrix(0.48427234,0,0,0.48427234,206.97073,672.79982)"
       id="g4148">
      <rect
         style="color:#000000;clip-rule:nonzero;display:inline;overflow:visible;visibility:visible;opacity:1;isolation:auto;mix-blend-mode:normal;color-interpolation:sRGB;color-interpolation-filters:linearRGB;solid-color:#000000;solid-opacity:1;fill:#2c545d;fill-opacity:1;fill-rule:nonzero;stroke:#939393;stroke-width:8.78697395;stroke-linecap:round;stroke-linejoin:miter;stroke-miterlimit:4;stroke-dasharray:none;stroke-dashoffset:0;stroke-opacity:1;color-rendering:auto;image-rendering:auto;shape-rendering:auto;text-rendering:auto;enable-background:accumulate"
         id="rect4144"
         width="3.0304577"
         height="51.51778"
         x="-168.69548"
         y="445.26047" />
      <rect
         y="141.42136"
         x="469.50412"
         height="51.51778"
         width="3.0304577"
         id="rect4146"
         style="color:#000000;clip-rule:nonzero;display:inline;overflow:visible;visibility:visible;opacity:1;isolation:auto;mix-blend-mode:normal;color-interpolation:sRGB;color-interpolation-filters:linearRGB;solid-color:#000000;solid-opacity:1;fill:#2c545d;fill-opacity:1;fill-rule:nonzero;stroke:#939393;stroke-width:8.78697395;stroke-linecap:round;stroke-linejoin:miter;stroke-miterlimit:4;stroke-dasharray:none;stroke-dashoffset:0;stroke-opacity:1;color-rendering:auto;image-rendering:auto;shape-rendering:auto;text-rendering:auto;enable-background:accumulate"
         transform="matrix(0,1,-1,0,0,0)" />
    </g>
    <text
       sodipodi:linespacing="1000%"
       id="text4152"
       y="959.08368"
       x="77.288277"
       style="font-style:normal;font-weight:normal;font-size:37.46175003px;line-height:1000%;font-family:sans-serif;letter-spacing:0px;word-spacing:0px;fill:#000000;fill-opacity:1;stroke:none;stroke-width:1px;stroke-linecap:butt;stroke-linejoin:miter;stroke-opacity:1"
       xml:space="preserve"><tspan
         style="font-size:25.75495338px"
         y="959.08368"
         x="77.288277"
         id="tspan4154"
         sodipodi:role="line">Jugador</tspan></text>
    <g
       id="g4156"
       transform="matrix(0.50102313,0,0,0.50102313,365.86973,545.70731)">
      <rect
         y="445.26047"
         x="-168.69548"
         height="51.51778"
         width="3.0304577"
         id="rect4158"
         style="color:#000000;clip-rule:nonzero;display:inline;overflow:visible;visibility:visible;opacity:1;isolation:auto;mix-blend-mode:normal;color-interpolation:sRGB;color-interpolation-filters:linearRGB;solid-color:#000000;solid-opacity:1;fill:#2c545d;fill-opacity:1;fill-rule:nonzero;stroke:#939393;stroke-width:8.78697395;stroke-linecap:round;stroke-linejoin:miter;stroke-miterlimit:4;stroke-dasharray:none;stroke-dashoffset:0;stroke-opacity:1;color-rendering:auto;image-rendering:auto;shape-rendering:auto;text-rendering:auto;enable-background:accumulate" />
      <rect
         transform="matrix(0,1,-1,0,0,0)"
         style="color:#000000;clip-rule:nonzero;display:inline;overflow:visible;visibility:visible;opacity:1;isolation:auto;mix-blend-mode:normal;color-interpolation:sRGB;color-interpolation-filters:linearRGB;solid-color:#000000;solid-opacity:1;fill:#2c545d;fill-opacity:1;fill-rule:nonzero;stroke:#939393;stroke-width:8.78697395;stroke-linecap:round;stroke-linejoin:miter;stroke-miterlimit:4;stroke-dasharray:none;stroke-dashoffset:0;stroke-opacity:1;color-rendering:auto;image-rendering:auto;shape-rendering:auto;text-rendering:auto;enable-background:accumulate"
         id="rect4160"
         width="3.0304577"
         height="51.51778"
         x="469.50412"
         y="141.42136" />
    </g>
    <text
       xml:space="preserve"
       style="font-style:normal;font-weight:normal;font-size:37.46175003px;line-height:1000%;font-family:sans-serif;letter-spacing:0px;word-spacing:0px;fill:#000000;fill-opacity:1;stroke:none;stroke-width:1px;stroke-linecap:butt;stroke-linejoin:miter;stroke-opacity:1"
       x="246.63161"
       y="841.77325"
       id="text4162"
       sodipodi:linespacing="1000%"><tspan
         style="font-size:25.75495338px"
         sodipodi:role="line"
         id="tspan4164"
         x="246.63161"
         y="841.77325">Tesoro</tspan></text>
    <path
       inkscape:connector-curvature="0"
       id="path4168"
       d="M 35.661983,691.35094 122.69878,899.4824"
       style="fill:none;fill-rule:evenodd;stroke:#000000;stroke-width:0.93654376;stroke-linecap:butt;stroke-linejoin:miter;stroke-miterlimit:4;stroke-dasharray:11.23852548, 11.23852548;stroke-dashoffset:0;stroke-opacity:1;marker-end:url(#marker4548)" />
    <path
       sodipodi:nodetypes="cc"
       style="fill:none;fill-rule:evenodd;stroke:#000000;stroke-width:0.93654376;stroke-linecap:butt;stroke-linejoin:miter;stroke-miterlimit:4;stroke-dasharray:11.23852548, 11.23852548;stroke-dashoffset:0;stroke-opacity:1;marker-end:url(#marker4620)"
       d="M 35.661983,691.35094 275.4862,777.91471"
       id="path4618"
       inkscape:connector-curvature="0" />
    <path
       sodipodi:nodetypes="cc"
       style="fill:none;fill-rule:evenodd;stroke:#000000;stroke-width:0.93654376;stroke-linecap:butt;stroke-linejoin:miter;stroke-miterlimit:4;stroke-dasharray:none;stroke-dashoffset:0;stroke-opacity:1;marker-end:url(#marker4956)"
       d="M 126.64053,902.74225 277.89747,785.75924"
       id="path4954"
       inkscape:connector-curvature="0" />
    <path
       id="path6053"
       style="fill:none;fill-opacity:1;stroke:#000000;stroke-width:2.70851421;stroke-linecap:butt;stroke-linejoin:miter;stroke-opacity:1"
       d="m 36.555881,672.85302 0,18.51815 67.712859,0 0,-18.51815 m 0,18.51815 67.71287,0 0,-18.51815 m 0,18.51815 67.71285,0 0,-18.51815 m 0,18.51815 67.71286,0 0,-18.51815 m 0,18.51815 67.71286,0 0,-18.51815"
       inkscape:connector-curvature="0"
       sodipodi:nodetypes="cccccccccccccccc" />
    <path
       sodipodi:nodetypes="cccccccccccccccc"
       inkscape:connector-curvature="0"
       d="m 18.044036,1030.4022 18.51815,0 0,-67.71286 -18.51815,0 m 18.51815,0 0,-67.71287 -18.51815,0 m 18.51815,0 0,-67.71285 -18.51815,0 m 18.51815,0 0,-67.71286 -18.51815,0 m 18.51815,0 0,-67.71286 -18.51815,0"
       style="fill:none;fill-opacity:1;stroke:#000000;stroke-width:2.70851421;stroke-linecap:butt;stroke-linejoin:miter;stroke-opacity:1"
       id="path6091" />
    <text
       sodipodi:linespacing="1000%"
       id="text6105"
       y="712.17682"
       x="354.71539"
       style="font-style:normal;font-weight:normal;font-size:37.46175003px;line-height:1000%;font-family:sans-serif;letter-spacing:0px;word-spacing:0px;fill:#000000;fill-opacity:1;stroke:none;stroke-width:1px;stroke-linecap:butt;stroke-linejoin:miter;stroke-opacity:1"
       xml:space="preserve"><tspan
         y="712.17682"
         x="354.71539"
         id="tspan6107"
         sodipodi:role="line"
         style="font-size:25.75495338px">x</tspan></text>
    <text
       xml:space="preserve"
       style="font-style:normal;font-weight:normal;font-size:37.46175003px;line-height:1000%;font-family:sans-serif;letter-spacing:0px;word-spacing:0px;fill:#000000;fill-opacity:1;stroke:none;stroke-width:1px;stroke-linecap:butt;stroke-linejoin:miter;stroke-opacity:1"
       x="43.797615"
       y="1017.3698"
       id="text6109"
       sodipodi:linespacing="1000%"><tspan
         style="font-size:25.75495338px"
         sodipodi:role="line"
         id="tspan6111"
         x="43.797615"
         y="1017.3698">y</tspan></text>
    <circle
       id="path6153"
       style="fill:#000000;stroke:none"
       cx="28.284271"
       cy="1033.1693"
       r="1.5" />
  </g>
</svg>
